<?xml version="1.0" standalone="no"?>
<!DOCTYPE svg PUBLIC "-//W3C//DTD SVG 20010904//EN"
 "http://www.w3.org/TR/2001/REC-SVG-20010904/DTD/svg10.dtd">
<svg version="1.0" xmlns="http://www.w3.org/2000/svg"
 width="264.000000pt" height="264.000000pt" viewBox="0 0 264.000000 264.000000"
 preserveAspectRatio="xMidYMid meet">

<g transform="translate(0.000000,264.000000) scale(0.100000,-0.100000)"
fill="#000000" stroke="none">
<path d="M1125 2625 c-291 -46 -528 -167 -735 -375 -259 -258 -384 -561 -384
-930 0 -369 125 -672 384 -930 244 -245 539 -374 885 -387 822 -31 1470 696
1349 1516 -51 349 -263 688 -557 889 -269 185 -628 267 -942 217z m455 -134
c412 -94 751 -402 879 -800 44 -135 56 -214 56 -371 0 -83 -6 -175 -14 -215
-95 -478 -452 -848 -925 -958 -124 -28 -372 -30 -496 -3 -783 169 -1189 1021
-824 1727 138 267 375 474 661 578 68 25 171 50 268 65 68 10 312 -4 395 -23z"/>
<path d="M1166 2409 c-147 -21 -329 -93 -457 -179 -88 -60 -219 -189 -280
-277 -306 -443 -249 -1038 134 -1410 98 -95 178 -150 301 -209 587 -278 1296
27 1501 646 173 525 -71 1096 -572 1335 -183 88 -423 124 -627 94z m-60 -684
c77 -23 87 -33 92 -104 3 -41 0 -66 -8 -74 -13 -13 -19 -6 -63 63 -33 52 -114
90 -192 90 -92 0 -151 -24 -216 -89 -111 -112 -146 -307 -88 -498 38 -124 146
-203 278 -203 117 0 208 49 268 144 35 55 51 36 34 -41 -24 -107 -32 -118 -92
-131 -215 -46 -416 -7 -538 103 -87 79 -135 238 -113 377 29 192 187 352 372
378 81 11 202 4 266 -15z m801 -10 c139 -40 229 -114 287 -235 29 -61 31 -72
31 -181 0 -113 -1 -116 -38 -191 -39 -81 -105 -151 -170 -182 -92 -43 -150
-50 -454 -50 -270 -1 -293 0 -293 16 0 12 11 19 38 23 72 12 86 20 94 53 5 17
7 181 6 364 l-3 332 -52 16 c-60 18 -85 36 -66 48 7 4 136 7 288 6 222 -2 286
-6 332 -19z"/>
<path d="M1550 1670 c-12 -7 -14 -57 -12 -337 3 -365 2 -359 73 -396 27 -15
51 -17 119 -14 151 6 266 81 327 212 24 53 27 72 27 155 -1 73 -6 108 -23 152
-42 108 -139 190 -266 223 -65 16 -221 20 -245 5z"/>
</g>
</svg>
